<svg xmlns="http://www.w3.org/2000/svg" width="597.03369pt" height="149.99998pt" viewBox="0 0 597.03365 149.99998"><path fill="#68686d" d="M133.183 75.108c0 .305.247.555.554.555h27.211c.305 0 .552-.25.552-.555V6.305a.554.554 0 0 0-.552-.555h-12.833a.554.554 0 0 0-.55.555v57.019a.393.393 0 0 1-.392.391h-13.436a.552.552 0 0 0-.554.552zm-42.477 25.111h71.792c.331 0 .551-.22.551-.555V88.383c0-.332-.22-.555-.551-.555h-59.351Zm23.451-67.256c-5.42 0-9.956-4.202-9.956-9.956 0-5.75 4.536-9.956 9.956-9.956 5.419 0 9.956 4.206 9.956 9.956 0 5.754-4.537 9.956-9.956 9.956m0-31.86c-12.833 0-23.452 9.294-23.452 21.904s10.619 21.904 23.452 21.904c12.833 0 23.451-9.294 23.451-21.904S126.99 1.104 114.157 1.104" style="stroke-width:3.01242;fill:#63666f;fill-opacity:1"/><path fill="#ee2241" d="M87.387 61.375c0 .305.247.555.555.555h21.677c.35 0 .524.424.274.671L91.49 80.646a2.602 2.602 0 0 0-.783 1.864v17.707l49.756-49.542c.579-.575.168-1.56-.644-1.56H87.942a.552.552 0 0 0-.555.551z" style="stroke-width:3.01242;fill:#d50037;fill-opacity:1"/><path fill="#68686d" d="M40.928 93.139c-9.956 0-17.255-7.302-17.255-16.481 0-9.182 7.299-16.484 17.255-16.484s17.255 7.302 17.255 16.484c0 9.179-7.299 16.481-17.255 16.481m0-45.575c-17.478 0-30.974 13.053-30.974 29.094 0 16.038 13.496 29.091 30.974 29.091s30.974-13.053 30.974-29.091c0-16.041-13.496-29.094-30.974-29.094" style="stroke-width:3.01242"/><path fill="#ee2241" d="m1.377 66.878 50.82-58.815a.864.864 0 0 0-.654-1.428H1.66a.555.555 0 0 0-.554.555v11.709c0 .307.247.554.554.554h22.16c.4 0 .617.473.355.777L.635 47.493A2.618 2.618 0 0 0 0 49.2v17.165c0 .726.9 1.06 1.377.512" style="stroke-width:3.01242;fill:#d50037;fill-opacity:1"/><path fill="#68686d" d="M58.516 49.556h12.833A.552.552 0 0 0 71.9 49V19.86a.39.39 0 0 1 .392-.391h9.01a.553.553 0 0 0 .554-.555V7.19a.552.552 0 0 0-.554-.551H58.516a.554.554 0 0 0-.554.551v41.812c0 .308.25.555.554.555m235.062-10.791a.39.39 0 0 1-.392.392h-18.243a.39.39 0 0 1-.392-.392v-9.835a.39.39 0 0 1 .392-.392h18.243c.217 0 .392.175.392.392zm13.273 11.785V7.19a.554.554 0 0 0-.552-.554h-12.167a.555.555 0 0 0-.554.554v9.23a.393.393 0 0 1-.392.395h-18.243a.394.394 0 0 1-.392-.395V7.19a.554.554 0 0 0-.55-.554H261.61a.555.555 0 0 0-.554.554v43.36c0 .308.247.555.554.555h44.69a.552.552 0 0 0 .55-.554m-56.855 5.199h-75.22c-.332 0-.555.22-.555.555v11.061c0 .332.223.552.555.552h75.22c.331 0 .554-.22.554-.552V56.305c0-.335-.223-.555-.554-.555m61.282-15.043h8.455c.217 0 .395.174.395.391v11.887c0 .304.247.554.551.554h12.833c.304 0 .551-.25.551-.554V7.19a.552.552 0 0 0-.55-.554h-22.235a.555.555 0 0 0-.555.554v11.505c0 .304.25.551.555.551h8.455c.217 0 .395.175.395.392v8.067a.394.394 0 0 1-.395.392h-8.455a.554.554 0 0 0-.555.55v11.505c0 .308.25.555.555.555M247.23 73.67h-70.133a.552.552 0 0 0-.551.555v10.838c0 .307.247.555.551.555h56.357a.39.39 0 0 1 .391.391v14.541c0 .304.247.554.551.554h12.833c.305 0 .555-.25.555-.554V74.225a.555.555 0 0 0-.555-.555M177.54 49.999h69.69a.552.552 0 0 0 .551-.555V39.05a.552.552 0 0 0-.551-.555h-56.134a.39.39 0 0 1-.391-.391v-4.085c0-.214.174-.392.391-.392h55.028a.552.552 0 0 0 .551-.551v-9.513a.552.552 0 0 0-.551-.555h-55.028a.39.39 0 0 1-.391-.391v-4.082c0-.217.174-.395.391-.395h56.134a.552.552 0 0 0 .551-.551v-10.4a.552.552 0 0 0-.551-.551h-69.69a.554.554 0 0 0-.554.551v42.255c0 .308.25.555.554.555m297.862.736a.555.555 0 0 0-.533-.403h-14.023a.29.29 0 0 1-.277-.368l7.196-25.666a.551.551 0 0 1 .534-.406h17.83a.554.554 0 0 0 .554-.552V11.613a.554.554 0 0 0-.554-.551h-17.86a.393.393 0 0 1-.392-.392V.551a.552.552 0 0 0-.551-.551h-12.833a.554.554 0 0 0-.555.551V10.67a.39.39 0 0 1-.391.392h-17.858a.552.552 0 0 0-.554.55V23.34c0 .305.247.552.554.552h17.873c.19 0 .328.183.277.364l-20.75 74.26a.47.47 0 0 0 .452.596h12.9a.555.555 0 0 0 .533-.404l9.871-35.48a.394.394 0 0 1 .38-.286h7.368a.39.39 0 0 1 .377.286l9.875 35.48a.552.552 0 0 0 .533.404h12.899a.47.47 0 0 0 .452-.597zm121.077 34.44h-31.242a.184.184 0 0 1-.144-.298l28.66-35.8a.863.863 0 0 0-.674-1.4H537.8a.393.393 0 0 1-.392-.393V20.745c0-.217.178-.392.392-.392h55.913a.555.555 0 0 0 .554-.554V8.295a.554.554 0 0 0-.554-.552h-69.69a.552.552 0 0 0-.55.552v51.437c0 .307.246.554.55.554h43.226c.331 0 .515.383.307.639l-19.321 23.873a1.015 1.015 0 0 1-.793.377H521.26a.552.552 0 0 0-.551.554v11.724c0 .305.247.555.551.555h75.22c.305 0 .555-.25.555-.555V85.73a.555.555 0 0 0-.554-.554M507.589 5.752h-12.833c-.331 0-.551.22-.551.554v93.36c0 .332.22.552.55.552h12.834c.331 0 .554-.22.554-.551V6.306c0-.335-.223-.554-.554-.554m-81.159.885h-22.787a.553.553 0 0 0-.554.554v92.475c0 .305.247.552.554.552h12.83a.552.552 0 0 0 .554-.552V19.861a.39.39 0 0 1 .392-.391h9.01c.304 0 .554-.25.554-.555V7.191a.555.555 0 0 0-.554-.554m-91.812 82.077h-56.134a.39.39 0 0 1-.391-.391v-4.194a.39.39 0 0 1 .391-.391h55.028c.304 0 .551-.25.551-.554V57.409a.552.552 0 0 0-.55-.551h-68.585a.552.552 0 0 0-.551.551v10.4c0 .303.247.55.551.55h55.028c.217 0 .392.178.392.395v3.97a.39.39 0 0 1-.392.392h-55.028a.554.554 0 0 0-.551.554v25.995c0 .307.247.554.551.554h69.69a.555.555 0 0 0 .554-.554V89.269a.553.553 0 0 0-.554-.555m51.433-39.075a.555.555 0 0 0-.536-.416H371.27a.286.286 0 0 1-.278-.358l7.435-28.98a.552.552 0 0 1 .536-.416h17.156c.307 0 .554-.25.554-.554V7.191a.552.552 0 0 0-.55-.555h-49.338a.552.552 0 0 0-.552.555v11.724c0 .304.247.554.552.554h17.439c.19 0 .325.175.28.359l-20.331 78.696a.47.47 0 0 0 .455.588h12.902c.25 0 .473-.172.536-.416l9.441-36.568a.39.39 0 0 1 .38-.295h7.133c.18 0 .337.124.38.295l9.44 36.568a.555.555 0 0 0 .537.416h12.902a.47.47 0 0 0 .455-.588zm-237.572 77.637c-4.774 0-8.708 3.513-8.708 9.013 0 5.462 3.973 8.974 8.633 8.974 5.269 0 7.486-3.895 7.6-5.994h-7.868v-4.353h13.252c.078.457.114 1.183.114 1.717 0 7.79-5.233 13.366-13.213 13.366-7.715 0-13.827-6.034-13.827-13.71 0-7.754 6.112-13.788 14.017-13.788 6.645 0 10.923 4.088 12.411 8.556h-5.955c-1.07-2.14-3.287-3.78-6.456-3.78m27.079 1.908-3.552 10.426h7.104zm-12.297 20.32 9.164-26.507h6.266l9.164 26.506h-5.384l-1.87-5.422h-10.086l-1.87 5.422zm45.142-8.48V123h5.232v26.506h-5.347l-11.534-17.99v17.99h-5.233V123h5.347zm24.29-13.749c-4.775 0-8.709 3.513-8.709 9.013 0 5.462 3.973 8.974 8.634 8.974 5.268 0 7.486-3.895 7.6-5.994h-7.868v-4.353H245.6c.078.457.114 1.183.114 1.717 0 7.79-5.232 13.366-13.212 13.366-7.715 0-13.827-6.034-13.827-13.71 0-7.754 6.112-13.788 14.016-13.788 6.646 0 10.923 4.088 12.412 8.556h-5.956c-1.07-2.14-3.287-3.78-6.456-3.78m44.686 22.227h-6.149l-5.079-18.792-5.003 18.792h-6.149l-6.874-26.507h5.537l4.582 19.289 5.193-19.289h5.501l5.157 19.403 4.621-19.403h5.498zm31.47-13.329c0-5.08-3.705-8.86-8.477-8.86-4.774 0-8.44 3.78-8.44 8.86 0 5.118 3.666 8.898 8.44 8.898 4.772 0 8.477-3.78 8.477-8.898m-22.216.575c-.31-7.947 5.832-14.324 13.74-14.324 7.79 0 13.784 6.073 13.784 13.749 0 7.727-6.013 13.766-13.82 13.748-7.252-.018-13.421-5.928-13.704-13.173m49.447 4.275V123h5.233v26.506h-5.347l-11.535-17.99v17.99h-5.232V123h5.347zM366.861 150c-6.684 0-9.968-4.163-10.236-8.67h5.193c.23 2.558 2.14 4.163 5.043 4.163 3.248 0 4.925-1.373 4.925-3.398 0-2.331-2.175-3.133-5.307-3.934-4.754-1.18-8.941-2.964-8.974-7.962-.03-4.033 3.247-7.269 7.244-7.81 6.748-.92 11.52 2.352 12.08 8.286h-5.232c-.344-2.292-1.796-3.859-4.775-3.859-2.329 0-4.163.994-4.163 3.019 0 1.488 1.148 2.75 4.66 3.476 5.079 1.03 9.664 2.633 9.664 8.516 0 4.546-3.82 8.173-10.122 8.173m25.169-22.533v22.036h-5.193v-22.036h-6.99v-4.468h19.172v4.468zm19.286 1.718-3.551 10.426h7.103zm-12.3 20.32 9.167-26.507h6.266l9.164 26.506h-5.383l-1.874-5.422h-10.082l-1.871 5.422zm36.781-22.038v22.036h-5.193v-22.036h-6.989v-4.468h19.171v4.468zm16.652 6.493h9.47v4.316h-9.47v6.76h10.122v4.467h-15.355v-26.506h15.355v4.47h-10.122z" style="stroke-width:3.01242;fill:#63666f;fill-opacity:1"/></svg>